<svg xmlns="http://www.w3.org/2000/svg" viewBox="0 0 283.46 123.83"><defs><style>.cls-1{fill:#0099a8}.cls-2{fill:#0033a1}</style></defs><g id="Layer_2" data-name="Layer 2"><g id="Layer_1-2" data-name="Layer 1"><path class="cls-1" d="M195.17 35.54a11.18 11.18 0 00-10.51 7.26l-27.54 73.77a11.18 11.18 0 01-10.51 7.26h39.73a11.2 11.2 0 0010.52-7.26l27.53-73.77a11.18 11.18 0 0110.51-7.26z"/><path class="cls-2" d="M234.9 35.54a11.2 11.2 0 0110.52 7.26L273 116.57a11.18 11.18 0 0010.51 7.26h-39.78a11.18 11.18 0 01-10.51-7.26L205.69 42.8a11.2 11.2 0 00-10.52-7.26z"/><path d="M80.39 123.83h8.94a16.51 16.51 0 01-4.8-.78 11.33 11.33 0 01-4.14.78z" fill="#16becf"/><path class="cls-2" d="M51.18 116.57l13.76-36.88-9.89-26.49H15.32L39 116.57a11.17 11.17 0 006.1 6.37 11.16 11.16 0 006.08-6.37z"/><path class="cls-1" d="M92.17 89.66s-5.1-5.1-5.1-9.14a5.1 5.1 0 1110.2 0c0 4.04-5.1 9.14-5.1 9.14zM129 35.54H98.05a11.2 11.2 0 00-10.52 7.26L69.35 91.51 60 116.57c-.1.26-.2.52-.32.78a11.2 11.2 0 01-10.19 6.48h39.65a16.61 16.61 0 01-4.61-.77c-5.57-1.77-10-6.43-10-12.61v-1.75l.06-.58c0-.22 0-.44.08-.65l.06-.34c0-.25.09-.5.14-.73 1.1-4.86 4.39-7.72 10-11.53-3.53-4.42-6-8.09-6-12.3 0-7.69 6.19-11.7 13.19-11.7 8.42 0 12.17 3.67 13 8a10.21 10.21 0 01.17 1.83c0 3.62-1.46 6.17-4.08 8.65a55 55 0 01-6.15 4.7l3 3.62 6.05 7.44 23.21-62.31a11.2 11.2 0 0110.52-7.26zM88.21 99a10.12 10.12 0 00-4.58 8.39 9.91 9.91 0 007.14 9.51 10.13 10.13 0 002.77.4 10 10 0 007-2.9l-6-7.52z"/><path class="cls-2" d="M137.78 35.54a11.18 11.18 0 0110.51 7.26l27.54 73.77a11.18 11.18 0 0010.51 7.26h-39.73a11.2 11.2 0 01-10.52-7.26L108.56 42.8a11.18 11.18 0 00-10.51-7.26zM37.73 6.79a10.5 10.5 0 00-4-5.28A9.75 9.75 0 0028.65 0a10.16 10.16 0 00-4.53 1.16L0 12.16l8.73 23.38h39.73z"/></g></g></svg>